<?xml version="1.0" encoding="utf-8"?>
<!-- Generator: Adobe Illustrator 15.1.0, SVG Export Plug-In . SVG Version: 6.00 Build 0)  -->
<!DOCTYPE svg PUBLIC "-//W3C//DTD SVG 1.1//EN" "http://www.w3.org/Graphics/SVG/1.1/DTD/svg11.dtd">
<svg version="1.1" id="Layer_1" xmlns="http://www.w3.org/2000/svg" xmlns:xlink="http://www.w3.org/1999/xlink" x="0px" y="0px"
	 width="234.245px" height="265.281px" viewBox="0 0 234.245 265.281" enable-background="new 0 0 234.245 265.281"
	 xml:space="preserve">
<g>
	<path fill="#010202" d="M64.395,28.25l0.063,0.145l1.43,3.785c-4.551-2.042-7.645-0.167-7.68-0.146l-0.223,0.143l0.24,0.128
		c0.003,0.004,0.674,0.386,2.088,3.013l0.066,0.122l0.126-0.051c0.647-0.243,1.769,0.186,2.454,0.508
		c-0.569,0.004-1.389,0.065-2.028,0.307l-0.162,0.061l0.081,0.154c0.166,0.327,0.338,0.674,0.518,1.05l0.058,0.128l0.137-0.049
		c0.961-0.366,2.698,0.667,3.584,1.269c-0.752-0.104-1.978-0.192-2.937,0.17l-0.153,0.06l0.072,0.151
		c0.842,1.86,1.505,3.439,2.263,5.457c0.218,0.571,0.443,1.18,0.688,1.862c0.721,1.906,7.447,4.109,7.737,4.205l0.087,0.026
		l17.787,47.098c0.267,0.7,0.31,1.18,0.292,1.433c-1.422,0.339-2.369,0.301-2.906,0.279c-0.41-0.02-0.636-0.024-0.755,0.142
		c-0.148,0.209-0.018,0.515,0.272,1.261c0.081,0.188,0.163,0.404,0.25,0.652c0.157,0.417,0.581,0.369,0.987,0.324
		c0.54-0.059,1.104-0.124,1.47,0.584c0.021,0.035,0.038,0.066,0.047,0.093v0.001c0.034,0.084,0.034,0.143,0.009,0.182
		c-0.091,0.134-0.532,0.144-0.831,0.152c-0.393,0.009-0.7,0.018-0.822,0.198c-0.034,0.057-0.069,0.148-0.015,0.287l0,0
		c2.01,4.875,7.264,10.49,8.896,11.076c0.168,0.061,0.308,0.067,0.412,0.018c0.116-0.032,0.209-0.129,0.297-0.285
		c0.836-1.521,1.068-9.209-0.651-14.205c-0.052-0.129-0.134-0.176-0.197-0.191c-0.215-0.055-0.45,0.144-0.749,0.393
		c-0.229,0.189-0.563,0.476-0.721,0.435c-0.063-0.016-0.11-0.099-0.146-0.239c-0.186-0.777,0.273-1.101,0.721-1.416
		c0.337-0.232,0.68-0.478,0.528-0.892c-0.099-0.252-0.18-0.466-0.25-0.656c-0.052-0.145-0.099-0.273-0.142-0.383l0,0
		c-0.178-0.473-0.282-0.699-0.485-0.746c-0.197-0.045-0.363,0.112-0.656,0.393c-0.39,0.373-1.074,1.027-2.37,1.714
		c-0.181-0.175-0.462-0.566-0.732-1.269L74.659,50.08l0.044-0.074c0.147-0.257,3.743-6.36,3.014-8.283l0,0
		c-0.473-1.214-0.792-2.043-1.164-3.082l-0.075-0.208l-0.175,0.141c-1.115,0.928-1.894,2.18-2.346,3.076
		c0.26-1.284,0.853-3.276,2.035-4.253l0.084-0.07l-0.034-0.103c-1.121-3.165-1.604-5.071-1.94-6.52l-0.058-0.248l-0.192,0.16
		c-0.609,0.505-1.074,1.189-1.386,1.748c0.192-0.945,0.569-2.257,1.252-2.826l0.073-0.062l-0.021-0.089
		c-0.413-2.104-0.296-2.855-0.291-2.871l0.041-0.219l-0.221,0.036c-0.038,0.004-3.59,0.644-5.657,5.177l-1.487-3.927
		c-0.11-0.303-0.575-0.386-1.075-0.196C64.578,27.58,64.284,27.948,64.395,28.25z"/>
	<path fill="#010202" d="M28.544,54.754l0.116,0.104l2.927,2.786c-4.983,0.138-6.953,3.169-6.976,3.202l-0.14,0.225l0.264,0.013
		c0.009,0.001,0.776,0.057,3.198,1.809l0.11,0.082l0.093-0.101c0.476-0.503,1.667-0.602,2.431-0.607
		c-0.514,0.253-1.223,0.656-1.693,1.155l-0.122,0.124l0.14,0.106c0.291,0.224,0.598,0.46,0.917,0.72l0.119,0.088l0.093-0.104
		c0.712-0.742,2.722-0.565,3.785-0.41c-0.729,0.233-1.874,0.688-2.573,1.428l-0.116,0.119l0.128,0.108
		c1.574,1.308,2.846,2.446,4.415,3.933c0.436,0.422,0.903,0.873,1.423,1.38c1.476,1.405,8.501,0.471,8.794,0.431l0.087-0.015
		l36.473,34.715c0.539,0.514,0.792,0.929,0.874,1.164c-1.131,0.921-1.993,1.296-2.489,1.512c-0.384,0.163-0.581,0.253-0.624,0.455
		c-0.044,0.254,0.211,0.472,0.798,1.019c0.148,0.137,0.32,0.295,0.512,0.479c0.319,0.306,0.679,0.083,1.021-0.137
		c0.465-0.288,0.941-0.588,1.587-0.113c0.026,0.021,0.052,0.046,0.075,0.065l0,0c0.066,0.062,0.093,0.115,0.087,0.16
		c-0.021,0.157-0.419,0.361-0.68,0.496c-0.349,0.177-0.622,0.322-0.65,0.534c-0.018,0.069,0,0.165,0.11,0.271l0,0
		c3.915,3.517,11.094,6.294,12.816,6.115c0.183-0.019,0.305-0.072,0.381-0.161c0.087-0.08,0.131-0.206,0.145-0.388
		c0.087-1.732-3.038-8.759-6.756-12.515c-0.101-0.095-0.194-0.1-0.26-0.086c-0.216,0.043-0.344,0.322-0.506,0.678
		c-0.116,0.27-0.299,0.674-0.465,0.708c-0.052,0.01-0.137-0.047-0.229-0.158c-0.503-0.617-0.229-1.11,0.038-1.586
		c0.196-0.355,0.406-0.724,0.081-1.031c-0.192-0.185-0.354-0.345-0.5-0.484c-0.115-0.106-0.209-0.202-0.296-0.285l0,0
		c-0.369-0.349-0.563-0.506-0.761-0.462c-0.203,0.047-0.279,0.261-0.428,0.643c-0.188,0.505-0.52,1.388-1.385,2.568
		c-0.238-0.077-0.668-0.307-1.206-0.825L47.259,69.966l0.006-0.083c0.026-0.299,0.616-7.359-0.871-8.774l0,0
		c-0.958-0.884-1.603-1.496-2.394-2.268l-0.159-0.155l-0.09,0.199c-0.604,1.321-0.761,2.786-0.784,3.796
		c-0.319-1.276-0.65-3.325-0.012-4.718l0.041-0.101l-0.076-0.077c-2.37-2.369-3.642-3.875-4.571-5.035l-0.157-0.196l-0.111,0.23
		c-0.325,0.718-0.447,1.537-0.482,2.176c-0.232-0.937-0.468-2.286-0.099-3.091l0.035-0.088l-0.052-0.073
		c-1.284-1.715-1.505-2.444-1.517-2.458l-0.052-0.217l-0.183,0.128c-0.026,0.021-2.954,2.139-2.854,7.121l-3.038-2.896
		c-0.232-0.223-0.686-0.097-1.057,0.293C28.407,54.07,28.306,54.53,28.544,54.754z"/>
	<g>
		<rect x="91.556" y="108.79" fill="#FFFFFF" width="35.212" height="73.51"/>
		<path fill="#010202" d="M113.788,115.316h7.072v5.036h-7.072V115.316z M106.722,120.352h7.065v5.039h-7.065V120.352z
			 M113.788,125.391h7.072v5.041h-7.072V125.391z M106.722,130.432h7.065v5.035h-7.065V130.432z M113.788,135.467h7.072v5.039
			h-7.072V135.467z M106.722,140.506h7.065v5.036h-7.065V140.506z M113.788,145.542v5.039h-7.065v17.632
			c0,1.392,1.058,2.521,2.358,2.521h9.422c1.298,0,2.357-1.13,2.357-2.521v-22.671H113.788z M118.502,165.696h-9.422v-5.039h9.422
			V165.696z M149.666,120.938l-10.52-11.246c-2.285-2.445-6.808-4.45-10.049-4.45H93.772c-3.244,0-5.893,2.833-5.893,6.296v68.012
			c0,3.465,2.648,6.299,5.893,6.299h54.168c3.241,0,5.884-2.834,5.884-6.299v-47.858c0-3.465-1.869-8.302-4.165-10.753H149.666z
			 M146.332,124.502c0.232,0.245,0.464,0.546,0.685,0.889h-12.032v-12.864c0.326,0.236,0.604,0.482,0.834,0.729L146.332,124.502
			L146.332,124.502z M149.123,179.549c0,0.686-0.543,1.261-1.183,1.261H93.772c-0.637,0-1.176-0.575-1.176-1.261v-68.012
			c0-0.685,0.539-1.261,1.176-1.261h35.325c0.354,0,0.755,0.051,1.179,0.136v20.02h18.718c0.079,0.449,0.129,0.879,0.129,1.259
			V179.549z"/>
	</g>
</g>
<g>
	<path d="M42.299,209.001h6.285c5.689,0,9.622,3.903,9.622,9.001v0.053c0,5.097-3.933,9.052-9.622,9.052h-6.285V209.001z
		 M48.583,225.219c4.577,0,7.503-3.104,7.503-7.115v-0.049c0-4.012-2.926-7.165-7.503-7.165h-4.243v14.329H48.583z"/>
	<path d="M61.18,223.227v-0.052c0-2.87,2.325-4.372,5.716-4.372c1.707,0,2.896,0.233,4.086,0.569v-0.415
		c0-2.378-1.449-3.619-3.959-3.619c-1.577,0-2.816,0.387-4.061,0.956l-0.595-1.63c1.476-0.674,2.898-1.138,4.864-1.138
		c1.888,0,3.36,0.517,4.319,1.476c0.932,0.929,1.396,2.225,1.396,3.932v8.173h-1.966v-1.992c-0.933,1.191-2.457,2.277-4.812,2.277
		C63.663,227.392,61.18,225.969,61.18,223.227z M71.008,222.194v-1.243c-0.981-0.285-2.277-0.57-3.907-0.57
		c-2.482,0-3.905,1.086-3.905,2.69v0.052c0,1.685,1.554,2.666,3.362,2.666C69.015,225.789,71.008,224.314,71.008,222.194z"/>
	<path d="M77.731,223.564v-8.071H75.87v-1.757h1.861v-4.037h1.993v4.037h4.243v1.757h-4.243v7.813c0,1.629,0.905,2.221,2.251,2.221
		c0.673,0,1.242-0.127,1.939-0.465v1.709c-0.697,0.362-1.449,0.569-2.404,0.569C79.361,227.34,77.731,226.28,77.731,223.564z"/>
	<path d="M86.476,223.227v-0.052c0-2.87,2.326-4.372,5.717-4.372c1.707,0,2.895,0.233,4.085,0.569v-0.415
		c0-2.378-1.448-3.619-3.958-3.619c-1.577,0-2.817,0.387-4.061,0.956l-0.596-1.63c1.477-0.674,2.898-1.138,4.865-1.138
		c1.888,0,3.36,0.517,4.318,1.476c0.933,0.929,1.397,2.225,1.397,3.932v8.173h-1.967v-1.992c-0.932,1.191-2.456,2.277-4.812,2.277
		C88.959,227.392,86.476,225.969,86.476,223.227z M96.304,222.194v-1.243c-0.981-0.285-2.277-0.57-3.906-0.57
		c-2.483,0-3.906,1.086-3.906,2.69v0.052c0,1.685,1.554,2.666,3.363,2.666C94.312,225.789,96.304,224.314,96.304,222.194z"/>
	<path d="M110.218,208.223h1.993v7.839c0.88-1.449,2.274-2.611,4.577-2.611c3.232,0,5.123,2.173,5.123,5.353v8.304h-1.992v-7.812
		c0-2.479-1.345-4.034-3.7-4.034c-2.301,0-4.008,1.683-4.008,4.191v7.655h-1.993V208.223z"/>
	<path d="M125.943,222.037v-8.301h1.99v7.81c0,2.483,1.348,4.034,3.699,4.034c2.277,0,4.011-1.679,4.011-4.188v-7.656h1.964v13.371
		h-1.964v-2.329c-0.906,1.45-2.276,2.614-4.58,2.614C127.831,227.392,125.943,225.219,125.943,222.037z"/>
	<path d="M142.083,213.736h1.992v2.326c0.88-1.449,2.273-2.611,4.577-2.611c3.232,0,5.123,2.173,5.123,5.353v8.304h-1.992v-7.812
		c0-2.479-1.345-4.034-3.7-4.034c-2.301,0-4.008,1.683-4.008,4.191v7.655h-1.992V213.736z"/>
	<path d="M158.709,223.564v-8.071h-1.861v-1.757h1.861v-4.037h1.992v4.037h4.243v1.757h-4.243v7.813
		c0,1.629,0.906,2.221,2.251,2.221c0.674,0,1.243-0.127,1.939-0.465v1.709c-0.696,0.362-1.448,0.569-2.404,0.569
		C160.338,227.34,158.709,226.28,158.709,223.564z"/>
	<path d="M168.514,208.613h2.274v2.198h-2.274V208.613z M168.642,213.736h1.992v13.371h-1.992V213.736z"/>
	<path d="M175.263,213.736h1.993v2.326c0.88-1.449,2.274-2.611,4.577-2.611c3.232,0,5.124,2.173,5.124,5.353v8.304h-1.993v-7.812
		c0-2.479-1.345-4.034-3.7-4.034c-2.3,0-4.008,1.683-4.008,4.191v7.655h-1.993V213.736z"/>
	<path d="M191.042,229.436l0.904-1.553c1.527,1.112,3.232,1.707,5.148,1.707c2.948,0,4.862-1.629,4.862-4.76v-1.577
		c-1.164,1.554-2.794,2.82-5.251,2.82c-3.207,0-6.285-2.405-6.285-6.263v-0.052c0-3.903,3.102-6.309,6.285-6.309
		c2.509,0,4.139,1.24,5.225,2.69v-2.405h1.992v11.042c0,2.07-0.621,3.648-1.708,4.734c-1.19,1.19-2.974,1.786-5.097,1.786
		C194.897,231.298,192.826,230.676,191.042,229.436z M202.01,219.789v-0.052c0-2.742-2.382-4.529-4.915-4.529
		c-2.535,0-4.632,1.762-4.632,4.503v0.049c0,2.692,2.148,4.555,4.632,4.555C199.628,224.314,202.01,222.478,202.01,219.789z"/>
</g>
</svg>
