<?xml version="1.0" encoding="utf-8"?>
<!-- Generator: Adobe Illustrator 15.1.0, SVG Export Plug-In . SVG Version: 6.00 Build 0)  -->
<!DOCTYPE svg PUBLIC "-//W3C//DTD SVG 1.1//EN" "http://www.w3.org/Graphics/SVG/1.1/DTD/svg11.dtd">
<svg version="1.1" id="Layer_1" xmlns="http://www.w3.org/2000/svg" xmlns:xlink="http://www.w3.org/1999/xlink" x="0px" y="0px"
	 width="397.26px" height="121.918px" viewBox="0 0 397.26 121.918" enable-background="new 0 0 397.26 121.918"
	 xml:space="preserve">
<g>
	<text transform="matrix(1 0 0 1 105.7969 55.478)"><tspan x="0" y="0" font-family="'Gotham-Medium'" font-size="33.4264">Humanitarian </tspan><tspan x="0" y="33.112" font-family="'Gotham-Medium'" font-size="33.4264">Data Exchange</tspan></text>
	<g>
		
			<line fill="none" stroke="#010202" stroke-width="0.7338" stroke-miterlimit="10" x1="53.844" y1="53.044" x2="75.189" y2="83.198"/>
		
			<line fill="none" stroke="#010202" stroke-width="0.7338" stroke-miterlimit="10" x1="53.844" y1="53.044" x2="80.863" y2="61.123"/>
		
			<line fill="none" stroke="#010202" stroke-width="0.7338" stroke-miterlimit="10" x1="53.844" y1="53.044" x2="81.668" y2="38.614"/>
		
			<line fill="none" stroke="#010202" stroke-width="0.7338" stroke-miterlimit="10" x1="36.562" y1="74.345" x2="75.189" y2="83.198"/>
		
			<line fill="none" stroke="#010202" stroke-width="0.7338" stroke-miterlimit="10" x1="53.844" y1="53.044" x2="40.774" y2="38.614"/>
		<circle fill="#1B69B2" stroke="#010202" stroke-width="0.7338" stroke-miterlimit="10" cx="53.842" cy="53.044" r="11.436"/>
		<circle fill="#888888" stroke="#010202" stroke-width="0.7338" stroke-miterlimit="10" cx="75.19" cy="83.198" r="4.993"/>
		<circle fill="#888888" stroke="#010202" stroke-width="0.7338" stroke-miterlimit="10" cx="81.668" cy="61.123" r="4.993"/>
		<circle fill="#EC645B" stroke="#010202" stroke-width="0.7338" stroke-miterlimit="10" cx="81.667" cy="38.614" r="8.079"/>
		<path fill="#888888" stroke="#010202" stroke-width="0.7338" stroke-miterlimit="10" d="M41.553,74.845
			c0,2.758-2.233,4.992-4.991,4.992c-2.761,0-4.994-2.234-4.994-4.992s2.233-4.992,4.994-4.992
			C39.319,69.853,41.553,72.087,41.553,74.845z"/>
		<circle fill="#888888" stroke="#010202" stroke-width="0.7338" stroke-miterlimit="10" cx="38.866" cy="36.25" r="4.993"/>
	</g>
</g>
</svg>
